PathFileType	4	(X/Y/Z)	Walking01.trc	
DataRate	CameraRate	NumFrames	NumMarkers	Units	OrigDataRate	OrigDataStartFrame	OrigNumFrames	
100.00	100.00	18	19	mm	100.00	359	102	
Frame#	Time	RPSI			LPSI			RASI			LASI			RTHI			RKNE			RHFB			RTUB			RSHN			RANK			RLCA			RSTL			RPCA			RCPG			RHEE			RP5M			RP1M			RD5M			RTOE			
		X1	Y1	Z1	X2	Y2	Z2	X3	Y3	Z3	X4	Y4	Z4	X5	Y5	Z5	X6	Y6	Z6	X7	Y7	Z7	X8	Y8	Z8	X9	Y9	Z9	X10	Y10	Z10	X11	Y11	Z11	X12	Y12	Z12	X13	Y13	Z13	X14	Y14	Z14	X15	Y15	Z15	X16	Y16	Z16	X17	Y17	Z17	X18	Y18	Z18	X19	Y19	Z19	

1	0.000	-899.82312	883.14813	110.90416	-910.23907	898.41071	19.79957	-702.15118	844.10999	149.26782	-732.03241	836.15015	-91.01032	-698.30457	545.35748	195.22594	-630.25214	422.96426	167.50941	-618.79974	384.23090	167.18936	-558.02875	397.92761	117.08729	-541.81940	325.45264	110.79039	-533.72797	61.97706	136.50603	-531.04572	33.26477	129.74051	-513.69086	39.93421	66.88435	-557.10638	48.47802	90.44432	-575.37445	28.47202	86.06882	-552.41046	11.98415	85.06283	-435.35434	35.16738	167.22829	-425.39371	91.70024	93.71267	-404.77319	46.88157	177.53360	-376.55606	80.11855	141.56404 
2	0.010	-882.93628	882.89008	111.92431	-892.99219	897.75018	20.73483	-685.15570	844.78784	150.76875	-714.66229	836.03308	-89.63371	-680.33075	545.55658	196.26233	-615.85693	421.36627	167.70061	-605.83228	381.91235	167.47017	-544.15338	395.62912	117.28636	-528.86761	322.32932	110.71813	-524.24744	58.25536	136.28107	-527.02246	32.38785	129.63011	-509.95111	38.09311	65.72452	-552.10883	48.32324	89.98438	-571.71057	29.90496	86.95325	-548.24164	12.03980	84.75452	-431.21512	28.36723	166.08266	-418.24985	84.35506	92.38112	-399.67935	38.24751	175.72200	-369.31006	69.64206	139.58368 
3	0.020	-866.37976	883.25983	113.30420	-875.70331	897.38947	21.66181	-668.42877	845.16431	152.42262	-696.78876	836.04553	-87.74307	-662.74969	545.71960	196.95901	-603.05377	419.63367	168.12196	-594.38226	380.07080	168.02882	-529.81067	395.28720	117.01544	-515.93774	320.84973	110.49407	-517.23071	58.10894	136.55998	-522.86353	32.92646	129.87299	-507.16968	37.58228	65.27946	-547.72388	50.23841	90.75745	-568.50500	33.06889	87.86137	-545.94684	13.85687	85.04058	-427.34354	22.13087	164.84528	-410.17932	76.69568	90.73784	-395.04208	29.84219	173.67322	-361.91690	58.42315	138.57681 
4	0.030	-850.17780	884.37689	114.97015	-858.72034	897.41907	22.46902	-652.04132	845.61896	154.41710	-678.63715	836.09314	-85.49163	-647.28638	546.52588	197.74850	-591.13507	419.74600	169.67386	-582.20459	380.79544	169.18987	-515.41901	395.75662	117.74546	-503.82269	321.52069	110.94123	-512.40576	57.69952	137.01450	-520.09961	33.37302	130.12479	-505.27255	37.38207	65.43309	-544.66675	51.80720	91.94083	-566.21002	35.62719	89.31761	-544.60046	15.57693	85.79209	-424.83597	17.07574	163.76433	-405.90082	70.69647	89.06242	-392.07904	23.28090	171.38887	-357.75793	50.07307	135.31975 
5	0.040	-834.34601	886.09985	116.44540	-842.07135	897.54370	23.00045	-635.95404	846.46490	156.60258	-660.28882	836.61884	-82.70016	-634.39600	548.34613	199.39941	-577.94824	422.20145	171.90642	-568.15424	383.75739	171.19682	-501.62924	396.28491	119.26027	-492.52206	322.49521	111.67878	-509.01007	57.38040	137.35892	-518.47308	34.23874	130.03471	-503.95428	37.06358	66.04942	-542.67249	53.10577	92.89815	-564.70758	37.60611	90.70467	-543.65277	16.85025	86.59602	-423.59811	13.13758	163.75224	-403.00232	66.37334	88.44218	-390.08167	18.24026	170.55273	-355.07999	43.24918	132.93288 
6	0.050	-817.98376	887.97827	117.31194	-825.98877	897.73798	23.09048	-619.99402	848.12238	158.52066	-642.11713	837.50592	-79.59061	-621.89087	550.52374	201.89404	-563.05243	425.77756	174.53918	-553.34515	387.04227	173.72896	-488.37863	396.62543	120.66331	-481.72031	322.67560	112.44860	-506.68655	57.76553	137.78717	-516.83337	34.44194	130.47725	-502.93506	36.55093	67.00913	-540.69940	54.29343	93.61924	-563.22394	39.49321	91.50047	-542.78992	17.82255	87.16792	-423.26462	10.69334	164.97334	-400.36856	62.86307	88.36326	-388.40085	15.24689	172.23531	-352.44308	38.17751	134.06604 
7	0.060	-802.12177	890.14130	117.43137	-810.43195	897.93219	22.69300	-604.42529	850.47876	160.35757	-625.31482	838.31903	-76.09457	-607.98157	553.00775	204.93025	-547.06049	429.21509	177.03226	-538.47266	389.75967	176.21324	-475.73575	396.71112	122.01771	-471.49689	322.22131	113.47666	-505.40399	58.31966	138.27318	-515.60193	34.02524	131.21602	-502.17520	36.58680	67.25562	-539.27460	55.21545	93.90179	-562.02960	41.33604	91.47031	-541.27100	17.65651	87.64191	-423.23889	9.35789	165.89386	-399.05212	61.67256	88.67079	-387.83542	13.52843	173.31795	-350.93073	35.72239	134.65109 
8	0.070	-786.94501	892.37341	116.88624	-795.34113	898.05994	21.78419	-589.57397	853.22498	162.34872	-609.10999	839.18738	-72.13286	-592.61859	556.06958	207.91376	-531.46832	432.12549	179.14848	-523.85321	391.67209	178.31625	-463.85510	396.70374	123.34944	-462.11179	321.42807	114.81505	-504.67230	58.60564	138.38016	-515.12109	34.10802	131.36192	-501.90921	36.67323	67.29434	-538.48395	55.69140	93.82307	-561.49725	42.63865	91.17826	-538.95111	15.90792	88.52732	-423.15582	8.77276	166.30698	-398.76892	60.69204	88.05931	-387.86459	12.69232	173.27132	-350.53522	34.42919	133.76346 
9	0.080	-772.45117	894.48584	115.80907	-780.66724	898.07178	20.47304	-575.44031	856.04956	164.49103	-593.16565	840.06598	-68.74459	-576.96912	559.52563	210.70485	-516.81696	433.88449	180.85077	-510.45316	392.68350	180.06572	-453.07471	396.44128	124.69883	-453.58771	320.25308	116.36578	-504.09393	58.72820	138.53224	-514.79132	34.18623	131.49736	-501.78348	36.76339	67.40526	-537.90021	56.31602	94.24773	-561.37933	43.17508	91.70061	-538.01563	14.67284	89.58806	-423.07574	8.39293	166.57690	-398.48172	59.81672	87.72724	-387.68167	12.46842	173.57120	-349.92288	33.95218	133.43384 
10	0.090	-758.60468	896.26263	114.41817	-766.32367	897.90002	18.97515	-561.79346	858.87689	166.67644	-577.84558	840.51489	-65.63012	-561.62988	562.70038	213.33417	-503.90894	434.21066	182.26370	-499.55243	392.89957	181.51646	-443.46698	395.69070	125.74621	-446.13303	318.79718	118.01755	-503.62045	58.72543	138.68263	-514.64069	34.27974	131.63477	-501.70953	36.85813	67.57304	-537.36987	57.14483	95.06212	-561.38922	43.49350	92.21388	-537.72845	14.38762	89.96157	-423.11862	8.04995	166.86711	-398.15997	59.55184	87.97375	-387.31519	12.43396	174.35030	-349.34134	33.59801	134.14644 
11	0.100	-745.27155	897.62079	113.03235	-752.35852	897.65930	17.46669	-548.56964	861.56281	168.89723	-562.99664	840.62048	-62.83751	-546.71436	565.18066	215.84703	-493.82742	433.46652	183.66847	-491.27197	392.22363	183.06401	-434.92593	394.41617	127.16411	-439.67273	317.18054	119.68481	-503.28302	58.65248	138.76855	-514.57422	34.33609	131.74123	-501.70325	36.93179	67.66580	-537.07745	57.55357	95.45216	-561.37665	43.82503	92.43851	-537.67621	14.31590	90.14908	-423.14835	7.88229	166.99394	-398.04245	59.15820	87.93115	-387.24268	12.35232	174.60698	-349.21710	33.16810	133.90219 
12	0.110	-732.26465	898.69965	111.95452	-738.68054	897.44916	16.36399	-535.69226	863.91284	171.33350	-548.51624	840.59680	-60.28111	-532.46692	567.13812	217.90889	-486.44382	432.35672	184.99512	-485.44803	391.31198	184.22394	-427.76001	392.76630	128.73306	-434.18552	315.62210	120.90467	-503.03757	58.64376	138.84360	-514.53552	34.39836	131.81793	-501.66745	36.97087	67.70027	-536.84283	57.89936	95.62196	-561.40479	44.26818	92.84611	-537.65540	14.30476	90.19802	-423.16113	7.77897	167.05315	-397.99689	58.85667	87.79827	-387.27429	12.29612	174.71759	-349.31409	32.67695	133.29306 
13	0.120	-719.35016	899.58618	111.29731	-725.16504	897.38562	15.77274	-523.02271	865.83185	173.95779	-534.31152	840.77576	-58.04504	-521.11652	568.74860	219.01094	-480.87692	431.32632	186.23326	-480.77255	390.42804	185.19856	-421.62454	391.04306	130.29823	-429.43710	314.12469	121.49826	-502.82870	58.67007	138.88437	-514.53156	34.48417	131.81543	-501.63733	36.97806	67.67561	-536.61432	58.19317	95.66097	-561.38507	44.63533	92.95070	-537.63177	14.33370	90.15779	-423.19022	7.71324	167.11234	-397.91650	58.61084	87.66317	-387.27240	12.18885	174.85210	-349.21771	32.49754	133.42401 
14	0.130	-706.56726	900.47363	111.14008	-711.93744	897.60297	15.84525	-510.59015	867.32526	176.63925	-520.30902	841.49097	-56.36479	-514.63959	568.74573	219.65262	-476.71304	430.58646	187.23892	-476.72156	389.61737	185.79912	-416.30472	389.47922	131.42711	-425.23047	312.80527	121.42809	-502.66510	58.68268	138.86552	-514.53015	34.54323	131.72606	-501.63162	36.98324	67.61611	-536.46033	58.47229	95.61546	-561.35645	44.90276	92.88105	-537.63629	14.36934	90.09918	-423.23752	7.68066	167.14865	-397.90631	58.41619	87.68054	-387.29495	12.14655	174.88472	-349.18149	32.47559	133.23993 
15	0.140	-693.89832	901.55078	111.54742	-698.87372	898.23529	16.62597	-498.31952	868.60547	179.51421	-506.71323	842.60425	-54.94443	-509.80859	567.79541	220.44374	-473.08771	430.15533	187.77997	-472.58057	389.02625	186.06445	-411.55399	388.26483	131.90379	-421.67981	311.89389	120.99786	-502.60126	58.69762	138.83005	-514.56677	34.60778	131.65985	-501.63538	37.00234	67.60606	-536.32257	58.74819	95.56198	-561.27429	45.14984	92.69810	-537.66016	14.39353	90.02691	-423.34012	7.66507	167.19585	-397.93896	58.24937	87.67655	-387.32785	12.13017	174.92891	-349.15433	32.37799	133.23055 
16	0.150	-681.23822	902.96436	112.44768	-685.92871	899.63031	18.00113	-486.34375	869.79468	182.32967	-493.41098	844.25146	-53.96989	-504.75467	566.75757	220.20178	-469.32089	429.88870	188.11708	-468.50079	388.74646	186.13989	-407.36603	387.19354	131.87602	-418.69418	311.28168	120.53986	-502.48874	58.71469	138.74995	-514.58923	34.69360	131.57051	-501.61792	37.03201	67.54903	-536.16327	59.04500	95.51881	-561.18323	45.39785	92.48507	-537.66876	14.43448	89.91984	-423.39337	7.65822	167.23236	-397.88834	58.13797	87.54133	-387.35266	12.12607	174.92856	-349.10175	32.29102	133.22807 
17	0.160	-668.56573	904.88464	113.85060	-672.87195	901.90479	19.76123	-474.33835	871.13177	184.82893	-480.24194	846.23383	-53.20584	-498.59482	566.28229	219.48329	-465.13748	429.59219	188.20767	-464.75665	388.63403	186.17265	-403.57645	386.21652	131.57314	-415.94571	310.69904	120.49835	-502.39151	58.77748	138.64273	-514.50348	35.12511	131.19199	-501.58621	37.05686	67.45560	-536.02386	59.31235	95.47182	-561.23749	45.64538	92.45892	-538.93298	15.70506	89.40473	-423.45816	7.67766	167.23616	-397.88220	57.98548	87.40998	-387.37543	12.12021	174.93456	-349.07593	32.25288	133.11339 
18	0.170	-655.85101	907.26581	115.42609	-659.78302	904.81750	21.57529	-462.40652	872.56897	186.80341	-467.27118	848.57416	-52.42580	-491.74649	566.28894	219.68958	-460.74814	429.47522	188.07045	-461.37097	388.56613	186.04936	-400.37769	385.22559	131.28557	-413.38089	309.91614	120.81731	-502.34354	58.87288	138.55714	-514.28900	35.89621	130.41759	-501.55576	37.09723	67.33421	-535.90472	59.52859	95.41273	-561.16064	45.92864	92.18092	-541.83588	18.50062	88.48402	-423.50546	7.70910	167.23985	-397.85272	57.79262	87.20127	-387.40631	12.13298	174.94290	-349.04767	32.21090	133.04668 
